<svg xmlns="http://www.w3.org/2000/svg" xmlns:xlink="http://www.w3.org/1999/xlink" preserveAspectRatio="xMidYMid meet" width="640" height="360"><style><![CDATA[.B{fill-opacity:0}.C{stroke-opacity:0}]]></style><defs><path d="M654.51-8.87v381.69H-22.96V-8.87h677.47z" id="A"/><path d="M672.82 93.24v56.34H-39.86V93.24h712.68z" id="B"/><path d="M677.04 139.72v233.1H-45.49v-233.1h722.53z" id="C"/><path d="M580.56 242.54l44.37 104.92H15.07l42.25-104.92h523.24z" id="D"/><path d="M342.7 332.3l18.62-11.24V217.07l-18.62 11.44V332.3z" id="E"/><path d="M320 241.44l41.75-26.66.71 106.2c0 .15-.08.3-.21.39L320 349.36v-2.87l40.15-26.79V218.04l-16.08 10.33v100.77c0 .83-.32 1.63-.9 2.23l-1.06 1.1v-102.9L320 244.44v-3z" id="F"/><path d="M320 180a2.96 2.96 0 0 1 2.96 2.96v167.43a2.96 2.96 0 0 1-2.96 2.96c-.59 0 .59 0 0 0a2.96 2.96 0 0 1-2.96-2.96V182.96A2.96 2.96 0 0 1 320 180c.59 0-.59 0 0 0z" id="G"/></defs><use xlink:href="#A" fill="#71b8d8"/><use xlink:href="#A" stroke="#000" class="B C"/><use xlink:href="#B" fill="#2043a1"/><use xlink:href="#B" stroke="#000" class="B C"/><use xlink:href="#C" fill="#e0c92d"/><use xlink:href="#C" stroke="#000" class="B C"/><use xlink:href="#D" class="B"/><use xlink:href="#D" stroke="#fff" stroke-width="2" class="B"/><use xlink:href="#E" opacity=".06" fill="#959595"/><use xlink:href="#E" opacity=".06" stroke="none" class="B"/><use xlink:href="#F" opacity=".05"/><use xlink:href="#F" opacity=".05" stroke="none" class="B"/><use xlink:href="#G" fill="#b3b3b3"/></svg>