<svg xmlns="http://www.w3.org/2000/svg" xmlns:xlink="http://www.w3.org/1999/xlink" preserveAspectRatio="xMidYMid meet" width="420" height="230"><defs><path d="M153.31 147.98c0 32.77-30.38 59.38-67.8 59.38-37.43 0-67.81-26.61-67.81-59.38 0-32.76 30.38-59.37 67.81-59.37 37.42 0 67.8 26.61 67.8 59.37z" id="A"/><path d="M398.39 147.98c0 32.77-30.38 59.38-67.8 59.38-37.43 0-67.81-26.61-67.81-59.38 0-32.76 30.38-59.37 67.81-59.37 37.42 0 67.8 26.61 67.8 59.37z" id="B"/><path d="M208.05 80.8c0 32.76-30.39 59.37-67.81 59.37s-67.8-26.61-67.8-59.37c0-32.77 30.38-59.38 67.8-59.38s67.81 26.61 67.81 59.38z" id="C"/><path d="M309.05 147.98c0 32.77-30.38 59.38-67.8 59.38s-67.8-26.61-67.8-59.38c0-32.76 30.38-59.37 67.8-59.37s67.8 26.61 67.8 59.37z" id="D"/><path d="M316.04 71.33c0 32.76-30.38 59.37-67.8 59.37-37.43 0-67.81-26.61-67.81-59.37 0-32.77 30.38-59.38 67.81-59.38 37.42 0 67.8 26.61 67.8 59.38z" id="E"/><path d="M231.72 147.98c0 32.77-30.39 59.38-67.81 59.38s-67.8-26.61-67.8-59.38c0-32.76 30.38-59.37 67.8-59.37s67.81 26.61 67.81 59.37z" id="F"/><path d="M323.77 111.53c0 32.77-30.39 59.38-67.81 59.38s-67.8-26.61-67.8-59.38c0-32.76 30.38-59.37 67.8-59.37s67.81 26.61 67.81 59.37z" id="G"/></defs><g fill="#efefef"><use xlink:href="#A"/><use xlink:href="#B"/></g><use xlink:href="#C" fill="#f2f2f2"/><use xlink:href="#D" fill="#efefef"/><use xlink:href="#E" fill="#f2f2f2"/><use xlink:href="#F" fill="#efefef"/><use xlink:href="#G" fill="#f5ecec"/></svg>